# xmcd
#
# Track frame offsets: 
#        150
#        15050
#        30932
#        47957
#        61017
#        78320
#        89965
#        106317
#        124592
#        136767
#        151595
#        165845
#
# Disc length: 2415 seconds
#
# Revision: 1
# Processed by: cddbd v1.5.2PL0 Copyright (c) Steve Scherf et al.
# Submitted via: ExactAudioCopy v0.90b4
#
DISCID=7a096d0c
DTITLE=Jenai - Cool Me Down
DYEAR=2002
DGENRE=Country
TTITLE0=Cool Me Down
TTITLE1=Be A Woman
TTITLE2=It Won't Be Me
TTITLE3=Heartbreak City
TTITLE4=Don't Hold Back Your Heart
TTITLE5=Papa Don't Ask, Mama Don't Know
TTITLE6=Time To Dream
TTITLE7=Loraine
TTITLE8=Lyin' To My Heart
TTITLE9=Little Unlucky At Love
TTITLE10=Written On My Heart
TTITLE11=South Side Stomp
EXTD=
EXTT0=
EXTT1=
EXTT2=
EXTT3=
EXTT4=
EXTT5=
EXTT6=
EXTT7=
EXTT8=
EXTT9=
EXTT10=
EXTT11=
PLAYORDER=
